{
  "header": {
    "keySignatures": [],
    "meta": [],
    "name": "Electric Piano",
    "ppq": 384,
    "tempos": [
      {
        "bpm": 145.00003625000906,
        "ticks": 0
      }
    ],
    "timeSignatures": [
      {
        "ticks": 0,
        "timeSignature": [4, 4],
        "measures": 0
      }
    ]
  },
  "tracks": [
    {
      "channel": 0,
      "controlChanges": {},
      "pitchBends": [],
      "instrument": {
        "family": "piano",
        "number": 0,
        "name": "acoustic grand piano"
      },
      "name": "Electric Piano",
      "notes": [
        {
          "duration": 0.31034475,
          "durationTicks": 288,
          "midi": 35,
          "name": "B1",
          "ticks": 0,
          "time": 0,
          "velocity": 0.3937007874015748
        },
        {
          "duration": 0.31034474999999995,
          "durationTicks": 288,
          "midi": 35,
          "name": "B1",
          "ticks": 192,
          "time": 0.2068965,
          "velocity": 0.3937007874015748
        },
        {
          "duration": 0.31034475,
          "durationTicks": 288,
          "midi": 51,
          "name": "D#3",
          "ticks": 288,
          "time": 0.31034475,
          "velocity": 0.3937007874015748
        },
        {
          "duration": 0.31034475,
          "durationTicks": 288,
          "midi": 35,
          "name": "B1",
          "ticks": 384,
          "time": 0.413793,
          "velocity": 0.3937007874015748
        },
        {
          "duration": 0.31034475000000006,
          "durationTicks": 288,
          "midi": 51,
          "name": "D#3",
          "ticks": 480,
          "time": 0.51724125,
          "velocity": 0.3937007874015748
        },
        {
          "duration": 0.31034475000000006,
          "durationTicks": 288,
          "midi": 49,
          "name": "C#3",
          "ticks": 576,
          "time": 0.6206895,
          "velocity": 0.3937007874015748
        },
        {
          "duration": 0.31034475000000006,
          "durationTicks": 288,
          "midi": 35,
          "name": "B1",
          "ticks": 576,
          "time": 0.6206895,
          "velocity": 0.3937007874015748
        },
        {
          "duration": 0.31034474999999995,
          "durationTicks": 288,
          "midi": 51,
          "name": "D#3",
          "ticks": 672,
          "time": 0.72413775,
          "velocity": 0.3937007874015748
        },
        {
          "duration": 0.31034474999999995,
          "durationTicks": 288,
          "midi": 35,
          "name": "B1",
          "ticks": 768,
          "time": 0.827586,
          "velocity": 0.3937007874015748
        },
        {
          "duration": 0.31034475000000006,
          "durationTicks": 288,
          "midi": 35,
          "name": "B1",
          "ticks": 960,
          "time": 1.0344825,
          "velocity": 0.3937007874015748
        },
        {
          "duration": 0.31034475000000006,
          "durationTicks": 288,
          "midi": 51,
          "name": "D#3",
          "ticks": 1056,
          "time": 1.13793075,
          "velocity": 0.3937007874015748
        },
        {
          "duration": 0.31034475000000006,
          "durationTicks": 288,
          "midi": 35,
          "name": "B1",
          "ticks": 1152,
          "time": 1.241379,
          "velocity": 0.3937007874015748
        },
        {
          "duration": 0.31034475000000006,
          "durationTicks": 288,
          "midi": 51,
          "name": "D#3",
          "ticks": 1248,
          "time": 1.34482725,
          "velocity": 0.3937007874015748
        },
        {
          "duration": 0.31034475000000006,
          "durationTicks": 288,
          "midi": 49,
          "name": "C#3",
          "ticks": 1344,
          "time": 1.4482755,
          "velocity": 0.3937007874015748
        },
        {
          "duration": 0.31034475000000006,
          "durationTicks": 288,
          "midi": 35,
          "name": "B1",
          "ticks": 1344,
          "time": 1.4482755,
          "velocity": 0.3937007874015748
        },
        {
          "duration": 0.31034475000000006,
          "durationTicks": 288,
          "midi": 51,
          "name": "D#3",
          "ticks": 1440,
          "time": 1.55172375,
          "velocity": 0.3937007874015748
        },
        {
          "duration": 0.31034475000000006,
          "durationTicks": 288,
          "midi": 35,
          "name": "B1",
          "ticks": 1536,
          "time": 1.655172,
          "velocity": 0.3937007874015748
        },
        {
          "duration": 0.31034474999999984,
          "durationTicks": 288,
          "midi": 35,
          "name": "B1",
          "ticks": 1728,
          "time": 1.8620685000000001,
          "velocity": 0.3937007874015748
        },
        {
          "duration": 0.31034474999999984,
          "durationTicks": 288,
          "midi": 51,
          "name": "D#3",
          "ticks": 1824,
          "time": 1.9655167500000001,
          "velocity": 0.3937007874015748
        },
        {
          "duration": 0.31034475000000006,
          "durationTicks": 288,
          "midi": 35,
          "name": "B1",
          "ticks": 1920,
          "time": 2.068965,
          "velocity": 0.3937007874015748
        },
        {
          "duration": 0.31034475000000006,
          "durationTicks": 288,
          "midi": 51,
          "name": "D#3",
          "ticks": 2016,
          "time": 2.17241325,
          "velocity": 0.3937007874015748
        },
        {
          "duration": 0.31034475000000006,
          "durationTicks": 288,
          "midi": 49,
          "name": "C#3",
          "ticks": 2112,
          "time": 2.2758615,
          "velocity": 0.3937007874015748
        },
        {
          "duration": 0.31034475000000006,
          "durationTicks": 288,
          "midi": 35,
          "name": "B1",
          "ticks": 2112,
          "time": 2.2758615,
          "velocity": 0.3937007874015748
        },
        {
          "duration": 0.31034475000000006,
          "durationTicks": 288,
          "midi": 51,
          "name": "D#3",
          "ticks": 2208,
          "time": 2.37930975,
          "velocity": 0.3937007874015748
        },
        {
          "duration": 0.31034475000000006,
          "durationTicks": 288,
          "midi": 37,
          "name": "C#2",
          "ticks": 2304,
          "time": 2.482758,
          "velocity": 0.3937007874015748
        },
        {
          "duration": 0.31034475000000006,
          "durationTicks": 288,
          "midi": 37,
          "name": "C#2",
          "ticks": 2496,
          "time": 2.6896545,
          "velocity": 0.3937007874015748
        },
        {
          "duration": 0.31034475000000006,
          "durationTicks": 288,
          "midi": 51,
          "name": "D#3",
          "ticks": 2592,
          "time": 2.79310275,
          "velocity": 0.3937007874015748
        },
        {
          "duration": 0.31034475000000006,
          "durationTicks": 288,
          "midi": 37,
          "name": "C#2",
          "ticks": 2688,
          "time": 2.896551,
          "velocity": 0.3937007874015748
        },
        {
          "duration": 0.31034475000000006,
          "durationTicks": 288,
          "midi": 51,
          "name": "D#3",
          "ticks": 2784,
          "time": 2.99999925,
          "velocity": 0.3937007874015748
        },
        {
          "duration": 0.31034475000000006,
          "durationTicks": 288,
          "midi": 49,
          "name": "C#3",
          "ticks": 2880,
          "time": 3.1034475,
          "velocity": 0.3937007874015748
        },
        {
          "duration": 0.31034475000000006,
          "durationTicks": 288,
          "midi": 37,
          "name": "C#2",
          "ticks": 2880,
          "time": 3.1034475,
          "velocity": 0.3937007874015748
        },
        {
          "duration": 0.31034475000000006,
          "durationTicks": 288,
          "midi": 51,
          "name": "D#3",
          "ticks": 2976,
          "time": 3.20689575,
          "velocity": 0.3937007874015748
        },
        {
          "duration": 0.31034475000000006,
          "durationTicks": 288,
          "midi": 39,
          "name": "D#2",
          "ticks": 3072,
          "time": 3.310344,
          "velocity": 0.3937007874015748
        },
        {
          "duration": 0.31034475000000006,
          "durationTicks": 288,
          "midi": 39,
          "name": "D#2",
          "ticks": 3264,
          "time": 3.5172405,
          "velocity": 0.3937007874015748
        },
        {
          "duration": 0.31034475000000006,
          "durationTicks": 288,
          "midi": 51,
          "name": "D#3",
          "ticks": 3360,
          "time": 3.6206887500000002,
          "velocity": 0.3937007874015748
        },
        {
          "duration": 0.31034475000000006,
          "durationTicks": 288,
          "midi": 39,
          "name": "D#2",
          "ticks": 3456,
          "time": 3.7241370000000003,
          "velocity": 0.3937007874015748
        },
        {
          "duration": 0.3103447499999996,
          "durationTicks": 288,
          "midi": 51,
          "name": "D#3",
          "ticks": 3552,
          "time": 3.8275852500000003,
          "velocity": 0.3937007874015748
        },
        {
          "duration": 0.31034475000000006,
          "durationTicks": 288,
          "midi": 49,
          "name": "C#3",
          "ticks": 3648,
          "time": 3.9310335000000003,
          "velocity": 0.3937007874015748
        },
        {
          "duration": 0.31034475000000006,
          "durationTicks": 288,
          "midi": 39,
          "name": "D#2",
          "ticks": 3648,
          "time": 3.9310335000000003,
          "velocity": 0.3937007874015748
        },
        {
          "duration": 0.3103447499999996,
          "durationTicks": 288,
          "midi": 51,
          "name": "D#3",
          "ticks": 3744,
          "time": 4.03448175,
          "velocity": 0.3937007874015748
        },
        {
          "duration": 0.3103447500000005,
          "durationTicks": 288,
          "midi": 39,
          "name": "D#2",
          "ticks": 3840,
          "time": 4.13793,
          "velocity": 0.3937007874015748
        },
        {
          "duration": 0.3103447500000005,
          "durationTicks": 288,
          "midi": 39,
          "name": "D#2",
          "ticks": 4032,
          "time": 4.3448265,
          "velocity": 0.3937007874015748
        },
        {
          "duration": 0.3103447499999996,
          "durationTicks": 288,
          "midi": 51,
          "name": "D#3",
          "ticks": 4128,
          "time": 4.44827475,
          "velocity": 0.3937007874015748
        },
        {
          "duration": 0.3103447500000005,
          "durationTicks": 288,
          "midi": 39,
          "name": "D#2",
          "ticks": 4224,
          "time": 4.551723,
          "velocity": 0.3937007874015748
        },
        {
          "duration": 0.3103447499999996,
          "durationTicks": 288,
          "midi": 51,
          "name": "D#3",
          "ticks": 4320,
          "time": 4.65517125,
          "velocity": 0.3937007874015748
        },
        {
          "duration": 0.3103447500000005,
          "durationTicks": 288,
          "midi": 49,
          "name": "C#3",
          "ticks": 4416,
          "time": 4.7586195,
          "velocity": 0.3937007874015748
        },
        {
          "duration": 0.3103447500000005,
          "durationTicks": 288,
          "midi": 39,
          "name": "D#2",
          "ticks": 4416,
          "time": 4.7586195,
          "velocity": 0.3937007874015748
        },
        {
          "duration": 0.3103447499999996,
          "durationTicks": 288,
          "midi": 51,
          "name": "D#3",
          "ticks": 4512,
          "time": 4.8620677500000005,
          "velocity": 0.3937007874015748
        },
        {
          "duration": 0.3103447500000005,
          "durationTicks": 288,
          "midi": 39,
          "name": "D#2",
          "ticks": 4608,
          "time": 4.965516,
          "velocity": 0.3937007874015748
        },
        {
          "duration": 0.3103447500000005,
          "durationTicks": 288,
          "midi": 39,
          "name": "D#2",
          "ticks": 4800,
          "time": 5.1724125,
          "velocity": 0.3937007874015748
        },
        {
          "duration": 0.3103447499999996,
          "durationTicks": 288,
          "midi": 51,
          "name": "D#3",
          "ticks": 4896,
          "time": 5.2758607500000005,
          "velocity": 0.3937007874015748
        },
        {
          "duration": 0.3103447500000005,
          "durationTicks": 288,
          "midi": 39,
          "name": "D#2",
          "ticks": 4992,
          "time": 5.379309,
          "velocity": 0.3937007874015748
        },
        {
          "duration": 0.3103447499999996,
          "durationTicks": 288,
          "midi": 51,
          "name": "D#3",
          "ticks": 5088,
          "time": 5.482757250000001,
          "velocity": 0.3937007874015748
        },
        {
          "duration": 0.3103447500000005,
          "durationTicks": 288,
          "midi": 49,
          "name": "C#3",
          "ticks": 5184,
          "time": 5.5862055,
          "velocity": 0.3937007874015748
        },
        {
          "duration": 0.3103447500000005,
          "durationTicks": 288,
          "midi": 39,
          "name": "D#2",
          "ticks": 5184,
          "time": 5.5862055,
          "velocity": 0.3937007874015748
        },
        {
          "duration": 0.3103447499999996,
          "durationTicks": 288,
          "midi": 51,
          "name": "D#3",
          "ticks": 5280,
          "time": 5.689653750000001,
          "velocity": 0.3937007874015748
        },
        {
          "duration": 0.3103447500000005,
          "durationTicks": 288,
          "midi": 39,
          "name": "D#2",
          "ticks": 5376,
          "time": 5.793102,
          "velocity": 0.3937007874015748
        },
        {
          "duration": 0.3103447500000005,
          "durationTicks": 288,
          "midi": 39,
          "name": "D#2",
          "ticks": 5568,
          "time": 5.9999985,
          "velocity": 0.3937007874015748
        },
        {
          "duration": 0.3103447499999996,
          "durationTicks": 288,
          "midi": 51,
          "name": "D#3",
          "ticks": 5664,
          "time": 6.103446750000001,
          "velocity": 0.3937007874015748
        },
        {
          "duration": 0.3103447500000005,
          "durationTicks": 288,
          "midi": 39,
          "name": "D#2",
          "ticks": 5760,
          "time": 6.206895,
          "velocity": 0.3937007874015748
        },
        {
          "duration": 0.3103447499999996,
          "durationTicks": 288,
          "midi": 51,
          "name": "D#3",
          "ticks": 5856,
          "time": 6.310343250000001,
          "velocity": 0.3937007874015748
        },
        {
          "duration": 0.3103447499999996,
          "durationTicks": 288,
          "midi": 49,
          "name": "C#3",
          "ticks": 5952,
          "time": 6.4137915,
          "velocity": 0.3937007874015748
        },
        {
          "duration": 0.3103447499999996,
          "durationTicks": 288,
          "midi": 39,
          "name": "D#2",
          "ticks": 5952,
          "time": 6.4137915,
          "velocity": 0.3937007874015748
        },
        {
          "duration": 0.3103447499999996,
          "durationTicks": 288,
          "midi": 51,
          "name": "D#3",
          "ticks": 6048,
          "time": 6.517239750000001,
          "velocity": 0.3937007874015748
        }
      ],
      "endOfTrackTicks": 6336
    }
  ]
}
